<mxfile host="app.diagrams.net" modified="2023-05-24T22:46:15.573Z" agent="Mozilla/5.0 (Windows NT 10.0; Win64; x64) AppleWebKit/537.36 (KHTML, like Gecko) Chrome/113.0.0.0 Safari/537.36 Edg/113.0.1774.50" etag="JCxZtMlO7FMpCOINN03H" version="21.3.2" type="github">
  <diagram name="Page-1" id="wEVCbdrnDBt3XtNKWW39">
    <mxGraphModel dx="1562" dy="858" grid="1" gridSize="10" guides="1" tooltips="1" connect="1" arrows="1" fold="1" page="1" pageScale="1" pageWidth="1920" pageHeight="1200" math="0" shadow="0">
      <root>
        <mxCell id="0" />
        <mxCell id="1" parent="0" />
        <mxCell id="2QPv9jtv6YxHL-SIHOPs-9" style="edgeStyle=orthogonalEdgeStyle;rounded=0;orthogonalLoop=1;jettySize=auto;html=1;entryX=1;entryY=0.5;entryDx=0;entryDy=0;" edge="1" parent="1" source="2QPv9jtv6YxHL-SIHOPs-4" target="2QPv9jtv6YxHL-SIHOPs-6">
          <mxGeometry relative="1" as="geometry" />
        </mxCell>
        <mxCell id="2QPv9jtv6YxHL-SIHOPs-4" value="PostgreSQL" style="strokeWidth=2;html=1;shape=mxgraph.flowchart.database;whiteSpace=wrap;verticalAlign=bottom;" vertex="1" parent="1">
          <mxGeometry x="1160" y="960" width="100" height="40" as="geometry" />
        </mxCell>
        <mxCell id="2QPv9jtv6YxHL-SIHOPs-6" value="sql" style="ellipse;whiteSpace=wrap;html=1;aspect=fixed;labelPosition=center;verticalLabelPosition=bottom;align=center;verticalAlign=top;" vertex="1" parent="1">
          <mxGeometry x="1000" y="970" width="20" height="20" as="geometry" />
        </mxCell>
        <mxCell id="2QPv9jtv6YxHL-SIHOPs-10" value="Контроллеры" style="shape=folder;fontStyle=1;tabWidth=130;tabHeight=30;tabPosition=left;html=1;boundedLbl=1;labelInHeader=1;container=1;collapsible=0;whiteSpace=wrap;" vertex="1" parent="1">
          <mxGeometry x="520" y="560" width="440" height="410" as="geometry" />
        </mxCell>
        <mxCell id="2QPv9jtv6YxHL-SIHOPs-11" value="" style="html=1;strokeColor=none;resizeWidth=1;resizeHeight=1;fillColor=none;part=1;connectable=0;allowArrows=0;deletable=0;whiteSpace=wrap;" vertex="1" parent="2QPv9jtv6YxHL-SIHOPs-10">
          <mxGeometry width="439.99999999999983" height="287" relative="1" as="geometry">
            <mxPoint y="30" as="offset" />
          </mxGeometry>
        </mxCell>
        <mxCell id="2QPv9jtv6YxHL-SIHOPs-46" style="edgeStyle=orthogonalEdgeStyle;shape=connector;curved=1;rounded=1;orthogonalLoop=1;jettySize=auto;html=1;entryX=0.5;entryY=0;entryDx=0;entryDy=0;labelBackgroundColor=default;strokeColor=default;fontFamily=Helvetica;fontSize=11;fontColor=default;endArrow=classic;" edge="1" parent="2QPv9jtv6YxHL-SIHOPs-10" source="2QPv9jtv6YxHL-SIHOPs-12" target="2QPv9jtv6YxHL-SIHOPs-45">
          <mxGeometry relative="1" as="geometry" />
        </mxCell>
        <mxCell id="2QPv9jtv6YxHL-SIHOPs-12" value="AccountController" style="html=1;dropTarget=0;whiteSpace=wrap;" vertex="1" parent="2QPv9jtv6YxHL-SIHOPs-10">
          <mxGeometry x="12.41" y="40" width="178.72" height="40" as="geometry" />
        </mxCell>
        <mxCell id="2QPv9jtv6YxHL-SIHOPs-13" value="" style="shape=module;jettyWidth=8;jettyHeight=4;" vertex="1" parent="2QPv9jtv6YxHL-SIHOPs-12">
          <mxGeometry x="1" width="20" height="20" relative="1" as="geometry">
            <mxPoint x="-27" y="7" as="offset" />
          </mxGeometry>
        </mxCell>
        <mxCell id="2QPv9jtv6YxHL-SIHOPs-49" style="edgeStyle=orthogonalEdgeStyle;shape=connector;curved=1;rounded=1;orthogonalLoop=1;jettySize=auto;html=1;entryX=0.5;entryY=0;entryDx=0;entryDy=0;labelBackgroundColor=default;strokeColor=default;fontFamily=Helvetica;fontSize=11;fontColor=default;endArrow=classic;" edge="1" parent="2QPv9jtv6YxHL-SIHOPs-10" source="2QPv9jtv6YxHL-SIHOPs-14" target="2QPv9jtv6YxHL-SIHOPs-45">
          <mxGeometry relative="1" as="geometry" />
        </mxCell>
        <mxCell id="2QPv9jtv6YxHL-SIHOPs-14" value="CallController" style="html=1;dropTarget=0;whiteSpace=wrap;" vertex="1" parent="2QPv9jtv6YxHL-SIHOPs-10">
          <mxGeometry x="12.41" y="90" width="178.72" height="40" as="geometry" />
        </mxCell>
        <mxCell id="2QPv9jtv6YxHL-SIHOPs-15" value="" style="shape=module;jettyWidth=8;jettyHeight=4;" vertex="1" parent="2QPv9jtv6YxHL-SIHOPs-14">
          <mxGeometry x="1" width="20" height="20" relative="1" as="geometry">
            <mxPoint x="-27" y="7" as="offset" />
          </mxGeometry>
        </mxCell>
        <mxCell id="2QPv9jtv6YxHL-SIHOPs-50" style="edgeStyle=orthogonalEdgeStyle;shape=connector;curved=1;rounded=1;orthogonalLoop=1;jettySize=auto;html=1;entryX=0.5;entryY=0;entryDx=0;entryDy=0;labelBackgroundColor=default;strokeColor=default;fontFamily=Helvetica;fontSize=11;fontColor=default;endArrow=classic;" edge="1" parent="2QPv9jtv6YxHL-SIHOPs-10" source="2QPv9jtv6YxHL-SIHOPs-16" target="2QPv9jtv6YxHL-SIHOPs-45">
          <mxGeometry relative="1" as="geometry" />
        </mxCell>
        <mxCell id="2QPv9jtv6YxHL-SIHOPs-16" value="CallTaskController" style="html=1;dropTarget=0;whiteSpace=wrap;" vertex="1" parent="2QPv9jtv6YxHL-SIHOPs-10">
          <mxGeometry x="12.41" y="140" width="178.72" height="40" as="geometry" />
        </mxCell>
        <mxCell id="2QPv9jtv6YxHL-SIHOPs-17" value="" style="shape=module;jettyWidth=8;jettyHeight=4;" vertex="1" parent="2QPv9jtv6YxHL-SIHOPs-16">
          <mxGeometry x="1" width="20" height="20" relative="1" as="geometry">
            <mxPoint x="-27" y="7" as="offset" />
          </mxGeometry>
        </mxCell>
        <mxCell id="2QPv9jtv6YxHL-SIHOPs-52" style="edgeStyle=orthogonalEdgeStyle;shape=connector;curved=1;rounded=1;orthogonalLoop=1;jettySize=auto;html=1;entryX=0.5;entryY=0;entryDx=0;entryDy=0;labelBackgroundColor=default;strokeColor=default;fontFamily=Helvetica;fontSize=11;fontColor=default;endArrow=classic;" edge="1" parent="2QPv9jtv6YxHL-SIHOPs-10" source="2QPv9jtv6YxHL-SIHOPs-18" target="2QPv9jtv6YxHL-SIHOPs-45">
          <mxGeometry relative="1" as="geometry" />
        </mxCell>
        <mxCell id="2QPv9jtv6YxHL-SIHOPs-18" value="CallThemeController" style="html=1;dropTarget=0;whiteSpace=wrap;" vertex="1" parent="2QPv9jtv6YxHL-SIHOPs-10">
          <mxGeometry x="12.41" y="190" width="178.72" height="40" as="geometry" />
        </mxCell>
        <mxCell id="2QPv9jtv6YxHL-SIHOPs-19" value="" style="shape=module;jettyWidth=8;jettyHeight=4;" vertex="1" parent="2QPv9jtv6YxHL-SIHOPs-18">
          <mxGeometry x="1" width="20" height="20" relative="1" as="geometry">
            <mxPoint x="-27" y="7" as="offset" />
          </mxGeometry>
        </mxCell>
        <mxCell id="2QPv9jtv6YxHL-SIHOPs-54" style="edgeStyle=orthogonalEdgeStyle;shape=connector;curved=1;rounded=1;orthogonalLoop=1;jettySize=auto;html=1;entryX=0.5;entryY=0;entryDx=0;entryDy=0;labelBackgroundColor=default;strokeColor=default;fontFamily=Helvetica;fontSize=11;fontColor=default;endArrow=classic;" edge="1" parent="2QPv9jtv6YxHL-SIHOPs-10" source="2QPv9jtv6YxHL-SIHOPs-20" target="2QPv9jtv6YxHL-SIHOPs-45">
          <mxGeometry relative="1" as="geometry" />
        </mxCell>
        <mxCell id="2QPv9jtv6YxHL-SIHOPs-20" value="ServiceLevelController" style="html=1;dropTarget=0;whiteSpace=wrap;align=center;" vertex="1" parent="2QPv9jtv6YxHL-SIHOPs-10">
          <mxGeometry x="11.129999999999999" y="240" width="180" height="40" as="geometry" />
        </mxCell>
        <mxCell id="2QPv9jtv6YxHL-SIHOPs-21" value="" style="shape=module;jettyWidth=8;jettyHeight=4;" vertex="1" parent="2QPv9jtv6YxHL-SIHOPs-20">
          <mxGeometry x="1" width="20" height="20" relative="1" as="geometry">
            <mxPoint x="-27" y="7" as="offset" />
          </mxGeometry>
        </mxCell>
        <mxCell id="2QPv9jtv6YxHL-SIHOPs-47" style="edgeStyle=orthogonalEdgeStyle;shape=connector;curved=1;rounded=1;orthogonalLoop=1;jettySize=auto;html=1;entryX=0.5;entryY=0;entryDx=0;entryDy=0;labelBackgroundColor=default;strokeColor=default;fontFamily=Helvetica;fontSize=11;fontColor=default;endArrow=classic;" edge="1" parent="2QPv9jtv6YxHL-SIHOPs-10" source="2QPv9jtv6YxHL-SIHOPs-22" target="2QPv9jtv6YxHL-SIHOPs-45">
          <mxGeometry relative="1" as="geometry" />
        </mxCell>
        <mxCell id="2QPv9jtv6YxHL-SIHOPs-22" value="SettingsController" style="html=1;dropTarget=0;whiteSpace=wrap;" vertex="1" parent="2QPv9jtv6YxHL-SIHOPs-10">
          <mxGeometry x="251.13" y="40" width="177.74" height="40" as="geometry" />
        </mxCell>
        <mxCell id="2QPv9jtv6YxHL-SIHOPs-23" value="" style="shape=module;jettyWidth=8;jettyHeight=4;" vertex="1" parent="2QPv9jtv6YxHL-SIHOPs-22">
          <mxGeometry x="1" width="20" height="20" relative="1" as="geometry">
            <mxPoint x="-27" y="7" as="offset" />
          </mxGeometry>
        </mxCell>
        <mxCell id="2QPv9jtv6YxHL-SIHOPs-48" style="edgeStyle=orthogonalEdgeStyle;shape=connector;curved=1;rounded=1;orthogonalLoop=1;jettySize=auto;html=1;entryX=0.5;entryY=0;entryDx=0;entryDy=0;labelBackgroundColor=default;strokeColor=default;fontFamily=Helvetica;fontSize=11;fontColor=default;endArrow=classic;" edge="1" parent="2QPv9jtv6YxHL-SIHOPs-10" source="2QPv9jtv6YxHL-SIHOPs-26" target="2QPv9jtv6YxHL-SIHOPs-45">
          <mxGeometry relative="1" as="geometry" />
        </mxCell>
        <mxCell id="2QPv9jtv6YxHL-SIHOPs-26" value="StatsController" style="html=1;dropTarget=0;whiteSpace=wrap;" vertex="1" parent="2QPv9jtv6YxHL-SIHOPs-10">
          <mxGeometry x="251.13" y="90" width="177.74" height="40" as="geometry" />
        </mxCell>
        <mxCell id="2QPv9jtv6YxHL-SIHOPs-27" value="" style="shape=module;jettyWidth=8;jettyHeight=4;" vertex="1" parent="2QPv9jtv6YxHL-SIHOPs-26">
          <mxGeometry x="1" width="20" height="20" relative="1" as="geometry">
            <mxPoint x="-27" y="7" as="offset" />
          </mxGeometry>
        </mxCell>
        <mxCell id="2QPv9jtv6YxHL-SIHOPs-28" value="UserController" style="html=1;dropTarget=0;whiteSpace=wrap;" vertex="1" parent="2QPv9jtv6YxHL-SIHOPs-10">
          <mxGeometry x="251.13" y="140" width="177.74" height="40" as="geometry" />
        </mxCell>
        <mxCell id="2QPv9jtv6YxHL-SIHOPs-29" value="" style="shape=module;jettyWidth=8;jettyHeight=4;" vertex="1" parent="2QPv9jtv6YxHL-SIHOPs-28">
          <mxGeometry x="1" width="20" height="20" relative="1" as="geometry">
            <mxPoint x="-27" y="7" as="offset" />
          </mxGeometry>
        </mxCell>
        <mxCell id="2QPv9jtv6YxHL-SIHOPs-53" style="edgeStyle=orthogonalEdgeStyle;shape=connector;curved=1;rounded=1;orthogonalLoop=1;jettySize=auto;html=1;entryX=0.5;entryY=0;entryDx=0;entryDy=0;labelBackgroundColor=default;strokeColor=default;fontFamily=Helvetica;fontSize=11;fontColor=default;endArrow=classic;" edge="1" parent="2QPv9jtv6YxHL-SIHOPs-10" source="2QPv9jtv6YxHL-SIHOPs-30" target="2QPv9jtv6YxHL-SIHOPs-45">
          <mxGeometry relative="1" as="geometry" />
        </mxCell>
        <mxCell id="2QPv9jtv6YxHL-SIHOPs-30" value="WarrantController" style="html=1;dropTarget=0;whiteSpace=wrap;" vertex="1" parent="2QPv9jtv6YxHL-SIHOPs-10">
          <mxGeometry x="251.13" y="190" width="177.74" height="40" as="geometry" />
        </mxCell>
        <mxCell id="2QPv9jtv6YxHL-SIHOPs-31" value="" style="shape=module;jettyWidth=8;jettyHeight=4;" vertex="1" parent="2QPv9jtv6YxHL-SIHOPs-30">
          <mxGeometry x="1" width="20" height="20" relative="1" as="geometry">
            <mxPoint x="-27" y="7" as="offset" />
          </mxGeometry>
        </mxCell>
        <mxCell id="2QPv9jtv6YxHL-SIHOPs-55" style="edgeStyle=orthogonalEdgeStyle;shape=connector;curved=1;rounded=1;orthogonalLoop=1;jettySize=auto;html=1;entryX=0.5;entryY=0;entryDx=0;entryDy=0;labelBackgroundColor=default;strokeColor=default;fontFamily=Helvetica;fontSize=11;fontColor=default;endArrow=classic;" edge="1" parent="2QPv9jtv6YxHL-SIHOPs-10" source="2QPv9jtv6YxHL-SIHOPs-32" target="2QPv9jtv6YxHL-SIHOPs-45">
          <mxGeometry relative="1" as="geometry" />
        </mxCell>
        <mxCell id="2QPv9jtv6YxHL-SIHOPs-32" value="WorkerController" style="html=1;dropTarget=0;whiteSpace=wrap;" vertex="1" parent="2QPv9jtv6YxHL-SIHOPs-10">
          <mxGeometry x="251.13" y="240" width="177.74" height="40" as="geometry" />
        </mxCell>
        <mxCell id="2QPv9jtv6YxHL-SIHOPs-33" value="" style="shape=module;jettyWidth=8;jettyHeight=4;" vertex="1" parent="2QPv9jtv6YxHL-SIHOPs-32">
          <mxGeometry x="1" width="20" height="20" relative="1" as="geometry">
            <mxPoint x="-27" y="7" as="offset" />
          </mxGeometry>
        </mxCell>
        <mxCell id="2QPv9jtv6YxHL-SIHOPs-45" value="Entity Framework" style="ellipse;whiteSpace=wrap;html=1;aspect=fixed;labelPosition=center;verticalLabelPosition=bottom;align=center;verticalAlign=top;" vertex="1" parent="2QPv9jtv6YxHL-SIHOPs-10">
          <mxGeometry x="210" y="300" width="20" height="20" as="geometry" />
        </mxCell>
        <mxCell id="2QPv9jtv6YxHL-SIHOPs-56" style="edgeStyle=orthogonalEdgeStyle;shape=connector;curved=1;rounded=1;orthogonalLoop=1;jettySize=auto;html=1;entryX=0;entryY=0.5;entryDx=0;entryDy=0;labelBackgroundColor=default;strokeColor=default;fontFamily=Helvetica;fontSize=11;fontColor=default;endArrow=classic;exitX=0.25;exitY=0;exitDx=0;exitDy=0;" edge="1" parent="2QPv9jtv6YxHL-SIHOPs-10" source="2QPv9jtv6YxHL-SIHOPs-24" target="2QPv9jtv6YxHL-SIHOPs-45">
          <mxGeometry relative="1" as="geometry" />
        </mxCell>
        <mxCell id="2QPv9jtv6YxHL-SIHOPs-24" value="PlannedServiceController" style="html=1;dropTarget=0;whiteSpace=wrap;" vertex="1" parent="2QPv9jtv6YxHL-SIHOPs-10">
          <mxGeometry x="47.824124860646634" y="360" width="344.3478260869565" height="40" as="geometry" />
        </mxCell>
        <mxCell id="2QPv9jtv6YxHL-SIHOPs-25" value="" style="shape=module;jettyWidth=8;jettyHeight=4;" vertex="1" parent="2QPv9jtv6YxHL-SIHOPs-24">
          <mxGeometry x="1" width="20" height="20" relative="1" as="geometry">
            <mxPoint x="-27" y="7" as="offset" />
          </mxGeometry>
        </mxCell>
        <mxCell id="2QPv9jtv6YxHL-SIHOPs-57" style="edgeStyle=orthogonalEdgeStyle;shape=connector;curved=1;rounded=1;orthogonalLoop=1;jettySize=auto;html=1;entryX=0.5;entryY=0;entryDx=0;entryDy=0;labelBackgroundColor=default;strokeColor=default;fontFamily=Helvetica;fontSize=11;fontColor=default;endArrow=classic;" edge="1" parent="1" source="2QPv9jtv6YxHL-SIHOPs-45" target="2QPv9jtv6YxHL-SIHOPs-6">
          <mxGeometry relative="1" as="geometry" />
        </mxCell>
        <mxCell id="2QPv9jtv6YxHL-SIHOPs-58" value="Сервисы" style="shape=folder;fontStyle=1;tabWidth=130;tabHeight=30;tabPosition=left;html=1;boundedLbl=1;labelInHeader=1;container=1;collapsible=0;whiteSpace=wrap;" vertex="1" parent="1">
          <mxGeometry x="1010" y="550" width="440" height="301" as="geometry" />
        </mxCell>
        <mxCell id="2QPv9jtv6YxHL-SIHOPs-59" value="" style="html=1;strokeColor=none;resizeWidth=1;resizeHeight=1;fillColor=none;part=1;connectable=0;allowArrows=0;deletable=0;whiteSpace=wrap;" vertex="1" parent="2QPv9jtv6YxHL-SIHOPs-58">
          <mxGeometry width="439.99999999999994" height="210.70000000000002" relative="1" as="geometry">
            <mxPoint y="30" as="offset" />
          </mxGeometry>
        </mxCell>
        <mxCell id="2QPv9jtv6YxHL-SIHOPs-61" value="EmailService" style="html=1;dropTarget=0;whiteSpace=wrap;" vertex="1" parent="2QPv9jtv6YxHL-SIHOPs-58">
          <mxGeometry x="12.41" y="50.16" width="178.72" height="39.84" as="geometry" />
        </mxCell>
        <mxCell id="2QPv9jtv6YxHL-SIHOPs-62" value="" style="shape=module;jettyWidth=8;jettyHeight=4;" vertex="1" parent="2QPv9jtv6YxHL-SIHOPs-61">
          <mxGeometry x="1" width="20" height="20" relative="1" as="geometry">
            <mxPoint x="-27" y="7" as="offset" />
          </mxGeometry>
        </mxCell>
        <mxCell id="2QPv9jtv6YxHL-SIHOPs-63" style="edgeStyle=orthogonalEdgeStyle;shape=connector;curved=1;rounded=1;orthogonalLoop=1;jettySize=auto;html=1;entryX=0.5;entryY=0;entryDx=0;entryDy=0;labelBackgroundColor=default;strokeColor=default;fontFamily=Helvetica;fontSize=11;fontColor=default;endArrow=classic;" edge="1" parent="2QPv9jtv6YxHL-SIHOPs-58" source="2QPv9jtv6YxHL-SIHOPs-64" target="2QPv9jtv6YxHL-SIHOPs-90">
          <mxGeometry relative="1" as="geometry" />
        </mxCell>
        <mxCell id="2QPv9jtv6YxHL-SIHOPs-64" value="UserService" style="html=1;dropTarget=0;whiteSpace=wrap;" vertex="1" parent="2QPv9jtv6YxHL-SIHOPs-58">
          <mxGeometry x="12.41" y="100" width="178.72" height="38.96" as="geometry" />
        </mxCell>
        <mxCell id="2QPv9jtv6YxHL-SIHOPs-65" value="" style="shape=module;jettyWidth=8;jettyHeight=4;" vertex="1" parent="2QPv9jtv6YxHL-SIHOPs-64">
          <mxGeometry x="1" width="20" height="20" relative="1" as="geometry">
            <mxPoint x="-27" y="7" as="offset" />
          </mxGeometry>
        </mxCell>
        <mxCell id="2QPv9jtv6YxHL-SIHOPs-75" style="edgeStyle=orthogonalEdgeStyle;shape=connector;curved=1;rounded=1;orthogonalLoop=1;jettySize=auto;html=1;entryX=0.5;entryY=0;entryDx=0;entryDy=0;labelBackgroundColor=default;strokeColor=default;fontFamily=Helvetica;fontSize=11;fontColor=default;endArrow=classic;" edge="1" parent="2QPv9jtv6YxHL-SIHOPs-58" source="2QPv9jtv6YxHL-SIHOPs-76" target="2QPv9jtv6YxHL-SIHOPs-90">
          <mxGeometry relative="1" as="geometry" />
        </mxCell>
        <mxCell id="2QPv9jtv6YxHL-SIHOPs-76" value="RabbitService" style="html=1;dropTarget=0;whiteSpace=wrap;" vertex="1" parent="2QPv9jtv6YxHL-SIHOPs-58">
          <mxGeometry x="251.13" y="50.16" width="177.74" height="39.84" as="geometry" />
        </mxCell>
        <mxCell id="2QPv9jtv6YxHL-SIHOPs-77" value="" style="shape=module;jettyWidth=8;jettyHeight=4;" vertex="1" parent="2QPv9jtv6YxHL-SIHOPs-76">
          <mxGeometry x="1" width="20" height="20" relative="1" as="geometry">
            <mxPoint x="-27" y="7" as="offset" />
          </mxGeometry>
        </mxCell>
        <mxCell id="2QPv9jtv6YxHL-SIHOPs-96" style="edgeStyle=orthogonalEdgeStyle;shape=connector;curved=1;rounded=1;orthogonalLoop=1;jettySize=auto;html=1;exitX=0;exitY=0.5;exitDx=0;exitDy=0;labelBackgroundColor=default;strokeColor=default;fontFamily=Helvetica;fontSize=11;fontColor=default;endArrow=classic;" edge="1" parent="2QPv9jtv6YxHL-SIHOPs-58" source="2QPv9jtv6YxHL-SIHOPs-90">
          <mxGeometry relative="1" as="geometry">
            <mxPoint y="420" as="targetPoint" />
          </mxGeometry>
        </mxCell>
        <mxCell id="2QPv9jtv6YxHL-SIHOPs-90" value="Entity Framework" style="ellipse;whiteSpace=wrap;html=1;aspect=fixed;labelPosition=center;verticalLabelPosition=bottom;align=center;verticalAlign=top;" vertex="1" parent="2QPv9jtv6YxHL-SIHOPs-58">
          <mxGeometry x="212.72000000000006" y="179.99780243902438" width="14.567627494456762" height="14.567627494456762" as="geometry" />
        </mxCell>
        <mxCell id="2QPv9jtv6YxHL-SIHOPs-91" style="edgeStyle=orthogonalEdgeStyle;shape=connector;curved=1;rounded=1;orthogonalLoop=1;jettySize=auto;html=1;entryX=0.5;entryY=0;entryDx=0;entryDy=0;labelBackgroundColor=default;strokeColor=default;fontFamily=Helvetica;fontSize=11;fontColor=default;endArrow=classic;exitX=0;exitY=0.5;exitDx=0;exitDy=0;" edge="1" parent="2QPv9jtv6YxHL-SIHOPs-58" source="2QPv9jtv6YxHL-SIHOPs-92" target="2QPv9jtv6YxHL-SIHOPs-90">
          <mxGeometry relative="1" as="geometry" />
        </mxCell>
        <mxCell id="2QPv9jtv6YxHL-SIHOPs-92" value="BackgroundPlannedService" style="html=1;dropTarget=0;whiteSpace=wrap;" vertex="1" parent="2QPv9jtv6YxHL-SIHOPs-58">
          <mxGeometry x="251.13" y="100" width="178.87" height="40" as="geometry" />
        </mxCell>
        <mxCell id="2QPv9jtv6YxHL-SIHOPs-93" value="" style="shape=module;jettyWidth=8;jettyHeight=4;" vertex="1" parent="2QPv9jtv6YxHL-SIHOPs-92">
          <mxGeometry x="1" width="20" height="20" relative="1" as="geometry">
            <mxPoint x="-27" y="7" as="offset" />
          </mxGeometry>
        </mxCell>
        <mxCell id="2QPv9jtv6YxHL-SIHOPs-95" style="edgeStyle=orthogonalEdgeStyle;shape=connector;curved=1;rounded=1;orthogonalLoop=1;jettySize=auto;html=1;entryX=0;entryY=0.5;entryDx=0;entryDy=0;labelBackgroundColor=default;strokeColor=default;fontFamily=Helvetica;fontSize=11;fontColor=default;endArrow=classic;" edge="1" parent="1" source="2QPv9jtv6YxHL-SIHOPs-28" target="2QPv9jtv6YxHL-SIHOPs-64">
          <mxGeometry relative="1" as="geometry">
            <Array as="points">
              <mxPoint x="990" y="720" />
              <mxPoint x="990" y="670" />
            </Array>
          </mxGeometry>
        </mxCell>
        <mxCell id="2QPv9jtv6YxHL-SIHOPs-97" style="edgeStyle=orthogonalEdgeStyle;shape=connector;curved=1;rounded=1;orthogonalLoop=1;jettySize=auto;html=1;entryX=0;entryY=0.5;entryDx=0;entryDy=0;labelBackgroundColor=default;strokeColor=default;fontFamily=Helvetica;fontSize=11;fontColor=default;endArrow=classic;" edge="1" parent="1" source="2QPv9jtv6YxHL-SIHOPs-28" target="2QPv9jtv6YxHL-SIHOPs-61">
          <mxGeometry relative="1" as="geometry">
            <Array as="points">
              <mxPoint x="970" y="720" />
              <mxPoint x="970" y="620" />
            </Array>
          </mxGeometry>
        </mxCell>
      </root>
    </mxGraphModel>
  </diagram>
</mxfile>
